# This file uses centimeters as units for non-parametric coordinates.

mtllib dnina.mtl
g default
v -0.580042 0.279652 -1.949643
v -0.291309 0.279652 -1.977849
v 0.000343 0.279652 -1.987430
v -1.132620 0.279684 -1.840425
v -0.862940 0.279652 -1.903364
v 0.000343 0.279652 1.987586
v -0.291309 0.279652 1.978003
v -0.580042 0.279652 1.949799
v -0.862940 0.279652 1.903517
v -1.132620 0.279684 1.840579
v -2.950511 0.279652 -0.195416
v -2.908433 0.279652 -0.388952
v -2.964807 0.279652 0.000076
v -2.908433 0.279652 0.389102
v -2.950511 0.279652 0.195568
v -2.750158 0.279684 0.743996
v -2.839387 0.279652 0.578726
v -2.839387 0.279652 -0.578574
v -2.750158 0.279684 -0.743846
v -1.646078 0.279652 -1.653667
v -1.397215 0.279652 -1.755025
v -2.096336 0.279652 -1.405305
v -1.879997 0.279652 -1.536764
v 2.909121 0.279652 -0.388952
v 2.951197 0.279652 -0.195416
v 2.965495 0.279652 0.000076
v 2.750844 0.279684 -0.743846
v 2.840075 0.279652 -0.578574
v 0.580730 0.279652 1.949799
v 0.291996 0.279652 1.978003
v 1.133308 0.279684 1.840579
v 0.863629 0.279652 1.903517
v -1.397215 0.279652 1.755179
v -1.646078 0.279652 1.653821
v -1.879997 0.279652 1.536912
v -2.096336 0.279652 1.405456
v -2.466867 0.279652 1.103655
v -2.618083 0.279652 0.936845
v -2.292455 0.279652 1.260447
v 2.467553 0.279652 -1.103503
v 2.618769 0.279652 -0.936694
v 2.097022 0.279652 -1.405305
v 2.293143 0.279652 -1.260297
v 1.646765 0.279652 1.653821
v 1.397904 0.279652 1.755181
v 2.097022 0.279652 1.405457
v 1.880684 0.279652 1.536912
v 1.646765 0.279652 -1.653667
v 1.880684 0.279652 -1.536764
v 1.133308 0.279684 -1.840425
v 1.397904 0.279652 -1.755025
v 0.580730 0.279652 -1.949643
v 0.863629 0.279652 -1.903364
v 0.291996 0.279652 -1.977849
v 2.467553 0.279652 1.103655
v 2.293143 0.279652 1.260447
v 2.750844 0.279684 0.743996
v 2.618769 0.279652 0.936845
v 2.909121 0.279652 0.389102
v 2.840075 0.279652 0.578726
v 2.951197 0.279652 0.195567
v -2.466867 0.279652 -1.103503
v -2.292455 0.279652 -1.260297
v -2.618083 0.279652 -0.936694
v 0.000344 0.279658 0.000076
vt 0.499469 0.147253
vt 0.505697 0.143198
vt 0.522737 0.233479
vt 0.512671 0.139902
vt 0.487690 0.157766
vt 0.493448 0.152124
vt 0.520412 0.330372
vt 0.513901 0.330732
vt 0.507468 0.330187
vt 0.532806 0.327061
vt 0.526953 0.329107
vt 0.546009 0.319702
vt 0.539779 0.323763
vt 0.557781 0.309191
vt 0.552030 0.314837
vt 0.456071 0.242406
vt 0.456641 0.232820
vt 0.457832 0.223235
vt 0.456792 0.261043
vt 0.456122 0.251897
vt 0.460259 0.278771
vt 0.458218 0.270134
vt 0.466071 0.294713
vt 0.462878 0.287000
vt 0.568229 0.295818
vt 0.563196 0.302838
vt 0.576985 0.280012
vt 0.572828 0.288222
vt 0.474041 0.308346
vt 0.469806 0.301857
vt 0.484330 0.319412
vt 0.478712 0.314120
vt 0.571437 0.158615
vt 0.575670 0.165104
vt 0.579401 0.172243
vt 0.561141 0.147551
vt 0.566764 0.152841
vt 0.582594 0.179960
vt 0.585220 0.188192
vt 0.587255 0.196828
vt 0.588684 0.205920
vt 0.583412 0.262512
vt 0.580438 0.271526
vt 0.587641 0.243730
vt 0.585821 0.253215
vt 0.495100 0.326376
vt 0.489266 0.323157
vt 0.501180 0.328725
vt 0.477248 0.171144
vt 0.482280 0.164122
vt 0.468490 0.186946
vt 0.472648 0.178738
vt 0.518523 0.137855
vt 0.525059 0.136587
vt 0.550374 0.140586
vt 0.556206 0.143805
vt 0.538003 0.136771
vt 0.544293 0.138238
vt 0.531569 0.136229
vt 0.589355 0.215062
vt 0.589405 0.224549
vt 0.588835 0.234139
vt 0.462063 0.204446
vt 0.465035 0.195438
vt 0.459652 0.213747
vn -0.000002 1.000000 -0.000001
vn 0.000029 1.000000 -0.000086
vn -0.000000 1.000000 0.000000
vn 0.000000 1.000000 0.000035
vn -0.000001 1.000000 -0.000002
vn -0.000002 1.000000 -0.000001
vn 0.000002 1.000000 0.000000
vn 0.000002 1.000000 0.000000
vn 0.000002 1.000000 0.000000
vn -0.000000 1.000000 -0.000034
vn 0.000016 1.000000 -0.000070
vn 0.000002 1.000000 0.000002
vn -0.000029 1.000000 0.000086
vn 0.000001 1.000000 0.000002
vn 0.000002 1.000000 0.000002
vn 0.000000 1.000000 -0.000003
vn 0.000000 1.000000 -0.000003
vn -0.000000 1.000000 -0.000003
vn 0.000015 1.000000 0.000024
vn -0.000061 1.000000 -0.000031
vn 0.000001 1.000000 -0.000003
vn 0.000040 1.000000 0.000028
vn 0.000001 1.000000 -0.000002
vn 0.000001 1.000000 -0.000002
vn 0.000001 1.000000 0.000003
vn 0.000001 1.000000 0.000002
vn 0.000015 1.000000 -0.000024
vn 0.000040 1.000000 -0.000028
vn 0.000002 1.000000 -0.000002
vn 0.000002 1.000000 -0.000002
vn -0.000000 1.000000 0.000034
vn -0.000029 1.000000 -0.000086
vn -0.000002 1.000000 0.000002
vn -0.000002 1.000000 0.000002
vn -0.000001 1.000000 0.000002
vn 0.000000 1.000000 -0.000035
vn 0.000029 1.000000 0.000086
vn -0.000001 1.000000 0.000003
vn -0.000001 1.000000 0.000002
vn -0.000040 1.000000 -0.000029
vn -0.000015 1.000000 -0.000024
vn 0.000000 1.000000 0.000003
vn -0.000061 1.000000 0.000031
vn -0.000000 1.000000 0.000003
vn 0.000000 1.000000 0.000003
vn 0.000002 1.000000 0.000000
vn 0.000016 1.000000 0.000070
vn 0.000002 1.000000 0.000000
vn -0.000001 1.000000 -0.000002
vn -0.000001 1.000000 -0.000003
vn -0.000015 1.000000 0.000024
vn -0.000040 1.000000 0.000028
vn -0.000016 1.000000 0.000070
vn -0.000002 1.000000 -0.000001
vn -0.000002 1.000000 0.000001
vn -0.000016 1.000000 -0.000070
vn -0.000002 1.000000 0.000000
vn -0.000002 1.000000 0.000000
vn -0.000002 1.000000 0.000000
vn 0.000061 1.000000 0.000031
vn -0.000000 1.000000 0.000003
vn -0.000000 1.000000 0.000003
vn -0.000000 1.000000 -0.000003
vn 0.000061 1.000000 -0.000031
vn -0.000000 1.000000 -0.000003
s 1
g osnova1
usemtl osnovaSG
f 62/1/1 64/2/2 65/3/3
f 64/2/2 19/4/4 65/3/3
f 22/5/5 63/6/6 65/3/3
f 63/6/6 62/1/1 65/3/3
f 59/7/7 61/8/8 65/3/3
f 61/8/8 26/9/9 65/3/3
f 57/10/10 60/11/11 65/3/3
f 60/11/11 59/7/7 65/3/3
f 55/12/12 58/13/13 65/3/3
f 58/13/13 57/10/10 65/3/3
f 46/14/14 56/15/15 65/3/3
f 56/15/15 55/12/12 65/3/3
f 52/16/16 54/17/17 65/3/3
f 54/17/17 3/18/18 65/3/3
f 50/19/19 53/20/20 65/3/3
f 53/20/20 52/16/16 65/3/3
f 48/21/21 51/22/22 65/3/3
f 51/22/22 50/19/19 65/3/3
f 42/23/23 49/24/24 65/3/3
f 49/24/24 48/21/21 65/3/3
f 44/25/25 47/26/26 65/3/3
f 47/26/26 46/14/14 65/3/3
f 31/27/27 45/28/28 65/3/3
f 45/28/28 44/25/25 65/3/3
f 40/29/29 43/30/30 65/3/3
f 43/30/30 42/23/23 65/3/3
f 27/31/31 41/32/32 65/3/3
f 41/32/32 40/29/29 65/3/3
f 37/33/33 39/34/34 65/3/3
f 39/34/34 36/35/35 65/3/3
f 16/36/36 38/37/37 65/3/3
f 38/37/37 37/33/33 65/3/3
f 36/35/35 35/38/38 65/3/3
f 35/38/38 34/39/39 65/3/3
f 34/39/39 33/40/40 65/3/3
f 33/40/40 10/41/41 65/3/3
f 29/42/42 32/43/43 65/3/3
f 32/43/43 31/27/27 65/3/3
f 6/44/44 30/45/45 65/3/3
f 30/45/45 29/42/42 65/3/3
f 24/46/46 28/47/47 65/3/3
f 28/47/47 27/31/31 65/3/3
f 26/9/9 25/48/48 65/3/3
f 25/48/48 24/46/46 65/3/3
f 20/49/49 23/50/50 65/3/3
f 23/50/50 22/5/5 65/3/3
f 4/51/51 21/52/52 65/3/3
f 21/52/52 20/49/49 65/3/3
f 18/53/53 12/54/54 65/3/3
f 19/4/4 18/53/53 65/3/3
f 14/55/55 17/56/56 65/3/3
f 17/56/56 16/36/36 65/3/3
f 13/57/57 15/58/58 65/3/3
f 15/58/58 14/55/55 65/3/3
f 11/59/59 13/57/57 65/3/3
f 12/54/54 11/59/59 65/3/3
f 10/41/41 9/60/60 65/3/3
f 9/60/60 8/61/61 65/3/3
f 8/61/61 7/62/62 65/3/3
f 7/62/62 6/44/44 65/3/3
f 1/63/63 5/64/64 65/3/3
f 5/64/64 4/51/51 65/3/3
f 3/18/18 2/65/65 65/3/3
f 2/65/65 1/63/63 65/3/3
